<?xml version="1.0" encoding="UTF-8" standalone="no"?>
<svg width="1464px" height="206px" viewBox="0 0 1464 206" version="1.1" xmlns="http://www.w3.org/2000/svg" xmlns:xlink="http://www.w3.org/1999/xlink">
    <!-- Generator: Sketch 3.8.3 (29802) - http://www.bohemiancoding.com/sketch -->
    <title>Page 1</title>
    <desc>Created with Sketch.</desc>
    <defs>
        <polygon id="path-1" points="1464 206 0 206 0 0 1464 0"></polygon>
    </defs>
    <g id="Page-1" stroke="none" stroke-width="1" fill="none" fill-rule="evenodd">
        <g>
            <mask id="mask-2" fill="white">
                <use xlink:href="#path-1"></use>
            </mask>
            <g id="Clip-2"></g>
            <path d="M1367.13153,107.610713 L1403.15845,107.610713 C1405.42681,107.610713 1407.5068,108.08451 1409.39841,109.024273 C1411.29002,109.967952 1412.92261,111.244464 1414.29619,112.845977 C1415.66191,114.455321 1416.75293,116.315269 1417.55745,118.437568 C1418.35805,120.559866 1418.76227,122.752647 1418.76227,125.01591 C1418.76227,127.283088 1418.33842,129.452375 1417.48288,131.527685 C1416.63519,133.602996 1415.44999,135.419871 1413.93906,136.978312 C1412.4242,138.532837 1410.6778,139.781938 1408.68807,140.729533 C1406.7062,141.669296 1404.5281,142.143093 1402.16555,142.143093 L1367.13153,142.143093 L1367.13153,107.610713 Z M1367.13153,63.7394362 L1400.03847,63.7394362 C1402.11846,63.7394362 1404.08071,64.1623296 1405.92523,65.0120322 C1407.76974,65.8617347 1409.33169,67.0403543 1410.60323,68.547891 C1411.88262,70.0593435 1412.89906,71.8527248 1413.65257,73.9280351 C1414.41,76.0033454 1414.79067,78.2235359 1414.79067,80.5768595 C1414.79067,82.8440381 1414.38645,84.9898306 1413.58585,87.0181528 C1412.78133,89.0464749 1411.69032,90.8202779 1410.32459,92.3278146 C1408.95102,93.839267 1407.31842,95.0413808 1405.42681,95.9341558 C1403.53913,96.8308464 1401.45522,97.2811496 1399.19078,97.2811496 L1367.13153,97.2811496 L1367.13153,63.7394362 Z M1413.58585,151.341025 C1417.1336,150.119333 1420.25358,148.369024 1422.94579,146.105761 C1425.64192,143.842498 1427.769,141.109354 1429.32703,137.898496 C1430.88898,134.691555 1431.66996,131.15178 1431.66996,127.283088 C1431.66996,121.057158 1429.99027,115.657435 1426.63482,111.07609 C1423.27937,106.502576 1418.71125,103.366116 1412.94616,101.666711 C1417.57707,99.5953164 1421.15229,96.4275314 1423.65612,92.1829345 C1426.15996,87.9383375 1427.41187,83.3178354 1427.41187,78.3135965 C1427.41187,75.2006311 1426.87029,72.1150754 1425.7832,69.0451824 C1424.69612,65.9792051 1423.15771,63.2421449 1421.17584,60.8379175 C1419.18612,58.4297744 1416.77647,56.4758501 1413.93906,54.9643977 C1411.10164,53.456861 1407.93457,52.6972191 1404.43391,52.6972191 L1354.36512,52.6972191 L1354.36512,153.181395 L1402.16555,153.181395 C1406.23134,153.181395 1410.0381,152.570549 1413.58585,151.341025 L1413.58585,151.341025 Z M1248.19166,122.259271 C1246.72782,116.174305 1245.99786,109.92488 1245.99786,103.503165 L1245.99786,52.6972191 L1258.76426,52.6972191 L1258.76426,103.503165 C1258.76426,108.507404 1259.25875,113.343268 1260.25165,118.014674 C1261.24455,122.682165 1262.90069,126.813207 1265.21222,130.39997 C1267.5316,133.982817 1270.60841,136.884335 1274.43872,139.10061 C1278.26511,141.320801 1283.06478,142.428938 1288.8338,142.428938 C1294.697,142.428938 1299.56731,141.293391 1303.44472,139.030128 C1307.3182,136.766865 1310.41463,133.814442 1312.73401,130.180692 C1315.04947,126.550856 1316.68206,122.400236 1317.62786,117.72883 C1318.56974,113.061339 1319.04461,108.319451 1319.04461,103.503165 L1319.04461,52.6972191 L1331.81101,52.6972191 L1331.81101,103.503165 C1331.81101,110.300785 1331.03396,116.738163 1329.47201,122.827045 C1327.91398,128.912011 1325.42977,134.264746 1322.02723,138.889163 C1318.62076,143.509666 1314.19785,147.166911 1308.76241,149.856983 C1303.32306,152.547055 1296.72989,153.890133 1288.97508,153.890133 C1280.9377,153.890133 1274.17578,152.472657 1268.69325,149.64162 C1263.2068,146.814499 1258.78389,143.063278 1255.42844,138.391872 C1252.07299,133.720466 1249.65942,128.344238 1248.19166,122.259271 L1248.19166,122.259271 Z M1238.33723,153.181395 L1169.39944,153.181395 L1169.39944,52.6972191 L1182.16584,52.6972191 L1182.16584,141.861164 L1238.33723,141.861164 L1238.33723,153.181395 Z M1069.61506,121.12764 C1067.29568,114.948697 1066.13795,108.648368 1066.13795,102.234485 C1066.13795,96.1965063 1067.20149,90.1781064 1069.32857,84.1871163 C1071.45958,78.2000418 1074.57956,72.8198977 1078.68851,68.0545154 C1082.80531,63.289133 1087.84045,59.4439354 1093.79784,56.5189226 C1099.75523,53.5939098 1106.51323,52.1333612 1114.08359,52.1333612 C1123.06677,52.1333612 1130.77057,54.1616834 1137.20283,58.2183277 C1143.63116,62.274972 1148.40728,67.5611397 1151.52726,74.0689996 L1141.45699,80.5768595 C1139.94213,77.3738334 1138.12116,74.6837613 1135.99408,72.5144747 C1133.867,70.3412724 1131.54762,68.5987949 1129.04771,67.2752951 C1126.53996,65.955711 1123.96156,65.0120322 1121.31252,64.4481743 C1118.66741,63.8804007 1116.06546,63.5945561 1113.51454,63.5945561 C1107.93389,63.5945561 1102.99295,64.7535973 1098.69169,67.0638484 C1094.38652,69.3780152 1090.77205,72.3930886 1087.84045,76.1208158 C1084.90884,79.848543 1082.71112,84.0461518 1081.24728,88.7175578 C1079.7756,93.3850482 1079.04564,98.083864 1079.04564,102.798342 C1079.04564,108.08451 1079.91688,113.108327 1081.67113,117.87371 C1083.41753,122.639092 1085.85465,126.860195 1088.97463,130.537018 C1092.09853,134.217757 1095.78364,137.14277 1100.0378,139.312057 C1104.29196,141.481343 1108.92679,142.565987 1113.93838,142.565987 C1116.58742,142.565987 1119.30318,142.23707 1122.0935,141.57532 C1124.88382,140.917486 1127.5564,139.856336 1130.10733,138.391872 C1132.66218,136.931324 1135.04828,135.090954 1137.27347,132.870764 C1139.49474,130.658404 1141.31571,127.991826 1142.73245,124.878861 L1153.37177,130.677983 C1151.76273,134.456614 1149.51791,137.781026 1146.6334,140.655135 C1143.7489,143.537075 1140.48764,145.964797 1136.84962,147.946131 C1133.20768,149.927465 1129.35382,151.438917 1125.28804,152.472657 C1121.21833,153.510312 1117.24674,154.027182 1113.37325,154.027182 C1106.47006,154.027182 1100.13199,152.523561 1094.36297,149.504571 C1088.59395,146.485582 1083.60591,142.546408 1079.39884,137.68705 C1075.19178,132.827691 1071.93052,127.306583 1069.61506,121.12764 L1069.61506,121.12764 Z M932.45373,121.621015 C930.044086,115.489061 928.83534,109.165238 928.83534,102.657378 C928.83534,95.8636735 930.020539,89.4262959 932.383089,83.3413294 C934.749564,77.2524473 938.010825,71.8762189 942.170796,67.2048129 C946.330768,62.5373225 951.295262,58.8330894 957.06428,56.0960292 C962.833297,53.358969 969.073255,51.9884811 975.788077,51.9884811 C985.524765,51.9884811 993.538598,54.0246346 999.833498,58.0773632 C1006.12055,62.1340075 1010.91629,67.4162596 1014.22857,73.9280351 L1004.44086,80.7217396 C1001.41115,74.871714 997.392458,70.5331407 992.384794,67.7021042 C987.369281,64.8710677 981.74547,63.4535916 975.505513,63.4535916 C970.399736,63.4535916 965.7649,64.5656447 961.604928,66.7819194 C957.441032,68.9981942 953.897207,71.9271227 950.965604,75.5569579 C948.034002,79.1907088 945.76564,83.3883176 944.160519,88.1497843 C942.547548,92.9190823 941.74695,97.8450075 941.74695,102.943223 C941.74695,108.319451 942.645661,113.390256 944.439158,118.151723 C946.23658,122.921021 948.693318,127.11863 951.817221,130.748465 C954.9372,134.382216 958.626231,137.236747 962.884316,139.312057 C967.138475,141.387367 971.765463,142.428938 976.780976,142.428938 C987.749958,142.428938 997.631853,137.14277 1006.42666,126.57435 L1006.42666,112.705012 L984.724167,112.705012 L984.724167,103.080271 L1017.20727,103.080271 L1017.20727,153.181395 L1006.42666,153.181395 L1006.42666,139.597901 C997.537665,149.124751 987.326112,153.890133 975.788077,153.890133 C969.073255,153.890133 962.856844,152.429584 957.134921,149.504571 C951.412997,146.579559 946.475974,142.734361 942.312078,137.965063 C938.148182,133.203596 934.867299,127.75297 932.45373,121.621015 L932.45373,121.621015 Z M838.622822,153.181395 L825.856418,153.181395 L825.856418,52.6972191 L835.785407,52.6972191 L898.20068,130.959912 L898.20068,52.8420993 L910.96316,52.8420993 L910.96316,153.181395 L900.182554,153.181395 L838.622822,76.4771427 L838.622822,153.181395 Z M788.981801,153.181395 L801.748205,153.181395 L801.748205,52.8420993 L788.981801,52.8420993 L788.981801,153.181395 Z M692.53325,153.181395 L679.762922,153.181395 L679.762922,52.6972191 L689.695835,52.6972191 L752.107184,130.959912 L752.107184,52.8420993 L764.869663,52.8420993 L764.869663,153.181395 L754.092982,153.181395 L692.53325,76.4771427 L692.53325,153.181395 Z M573.59338,122.259271 C572.125616,116.174305 571.395659,109.92488 571.395659,103.503165 L571.395659,52.6972191 L584.162063,52.6972191 L584.162063,103.503165 C584.162063,108.507404 584.65655,113.343268 585.653373,118.014674 C586.646272,122.682165 588.298487,126.813207 590.613943,130.39997 C592.933324,133.982817 596.006208,136.884335 599.836522,139.10061 C603.666836,141.320801 608.462576,142.428938 614.231594,142.428938 C620.094799,142.428938 624.965106,141.293391 628.846438,139.030128 C632.719921,136.766865 635.812428,133.814442 638.131809,130.180692 C640.447265,126.550856 642.079857,122.400236 643.029587,117.72883 C643.971467,113.061339 644.446332,108.319451 644.446332,103.503165 L644.446332,52.6972191 L657.212735,52.6972191 L657.212735,103.503165 C657.212735,110.300785 656.43176,116.738163 654.873732,122.827045 C653.311781,128.912011 650.831496,134.264746 647.425028,138.889163 C644.022485,143.509666 639.599572,147.166911 634.160213,149.856983 C628.720854,152.547055 622.127691,153.890133 614.3768,153.890133 C606.335497,153.890133 599.577505,152.472657 594.091052,149.64162 C588.604598,146.814499 584.18561,143.063278 580.826236,138.391872 C577.470787,133.720466 575.057219,128.344238 573.59338,122.259271 L573.59338,122.259271 Z M510.828826,64.0174495 L476.077364,64.0174495 L476.077364,52.6972191 L558.346691,52.6972191 L558.346691,64.0174495 L523.595229,64.0174495 L523.595229,153.181395 L510.828826,153.181395 L510.828826,64.0174495 Z M447.868047,173.793533 L1460.0755,173.793533 L1460.0755,32.2221293 L447.868047,32.2221293 L447.868047,173.793533 Z M394.145544,89.3558136 L394.145544,119.45956 L345.316895,119.45956 L345.316895,146.426847 L394.145544,146.426847 L419.988387,175.708301 L310.51834,175.708301 L310.51834,30.2877835 L419.988387,30.2877835 L394.145544,59.792431 L345.316895,59.792431 L345.316895,89.3558136 L394.145544,89.3558136 Z M296.087947,175.731795 L261.4189,175.731795 L261.411051,175.731795 L261.411051,175.723964 L208.677523,124.432474 L208.677523,175.708301 L173.769082,175.708301 L173.769082,90.561843 L142.141523,59.792431 L93.2540069,59.792431 L93.2540069,117.486058 L152.219643,117.486058 L152.219643,148.694026 L93.2540069,148.694026 L93.2540069,175.708301 L58.3455652,175.708301 L58.3455652,148.694026 L46.1953083,148.694026 L15.2152927,117.486058 L58.3455652,117.486058 L58.3455652,30.2877835 L164.048091,30.2877835 L261.411051,124.933681 L261.411051,30.3112775 L296.087947,30.3112775 L296.087947,175.731795 Z M208.677523,30.2642894 L208.677523,62.6352145 L175.374203,30.2642894 L208.677523,30.2642894 Z M447.868047,28.3064495 L447.868047,0 L0,0 L0,206 L447.868047,206 L447.868047,177.709213 L1464,177.709213 L1464,28.3064495 L447.868047,28.3064495 Z" id="Fill-1" fill="#4A4A4A" mask="url(#mask-2)"></path>
        </g>
    </g>
</svg>