<?xml version="1.0" encoding="UTF-8" standalone="no"?>
<svg width="4046px" height="1829px" viewBox="0 0 4046 1829" version="1.1" xmlns="http://www.w3.org/2000/svg" xmlns:xlink="http://www.w3.org/1999/xlink">
    <!-- Generator: Sketch 3.8.3 (29802) - http://www.bohemiancoding.com/sketch -->
    <title>Page 1</title>
    <desc>Created with Sketch.</desc>
    <defs>
        <polygon id="path-1" points="4046 914.5 4046 0 0 0 0 914.5 0 1829 4046 1829"></polygon>
    </defs>
    <g id="Page-1" stroke="none" stroke-width="1" fill="none" fill-rule="evenodd">
        <g>
            <mask id="mask-2" fill="white">
                <use xlink:href="#path-1"></use>
            </mask>
            <g id="Clip-2"></g>
            <path d="M4046,113.850646 L2772.48669,113.850646 L2772.48669,135.843688 L4023.99101,135.843688 L4023.99101,1807.00696 L22.0089864,1807.00696 L22.0089864,135.843688 L421.824233,135.843688 L421.824233,113.850646 L0,113.850646 L0,1829 L4046,1829 L4046,113.850646 Z M2616.67773,177.718439 C2614.79963,182.307654 2612.1879,186.32505 2608.85721,189.770626 C2605.51184,193.201541 2601.65293,195.972664 2597.26581,198.054672 C2592.87868,200.13668 2588.08073,201.192346 2582.85726,201.192346 L2505.53235,201.192346 L2505.53235,124.847167 L2585.05816,124.847167 C2590.06153,124.847167 2594.65408,125.888171 2598.83578,127.970179 C2603.00282,130.052187 2606.61229,132.867296 2609.63486,136.415507 C2612.65743,139.963718 2615.06374,144.083748 2616.83913,148.775596 C2618.61453,153.467445 2619.49488,158.320577 2619.49488,163.33499 C2619.49488,168.334742 2618.55583,173.129225 2616.67773,177.718439 L2616.67773,177.718439 Z M2578.17668,27.8431909 C2582.75455,27.8431909 2587.08298,28.7815606 2591.16198,30.6729622 C2595.22631,32.5497018 2598.67438,35.1595427 2601.49153,38.4878231 C2604.30868,41.8307654 2606.5536,45.7895129 2608.22628,50.3787276 C2609.88429,54.9679423 2610.73531,59.8650596 2610.73531,65.0847416 C2610.73531,70.084493 2609.84028,74.8349901 2608.06488,79.3215706 C2606.28949,83.8081511 2603.88318,87.7229125 2600.86061,91.0511928 C2597.83804,94.3941352 2594.24324,97.0479622 2590.06153,99.027336 C2585.87983,101.00671 2581.30196,102.003728 2576.29858,102.003728 L2505.53235,102.003728 L2505.53235,27.8431909 L2578.17668,27.8431909 Z M2636.88198,132.500746 C2629.45762,122.398608 2619.39218,115.463469 2606.65631,111.695328 C2616.88315,107.120775 2624.76237,100.126988 2630.29396,90.7432903 C2635.82555,81.3595924 2638.59869,71.140159 2638.59869,60.070328 C2638.59869,53.193837 2637.39553,46.361332 2635.00388,39.5874751 C2632.59757,32.7989563 2629.20818,26.7582008 2624.82106,21.4358847 C2620.43393,16.1135686 2615.12243,11.7882704 2608.85721,8.44532803 C2602.59198,5.11704771 2595.59313,3.44557654 2587.87531,3.44557654 L2477.34618,3.44557654 L2477.34618,225.58996 L2582.85726,225.58996 C2591.83693,225.58996 2600.24436,224.241054 2608.06488,221.528579 C2615.90008,218.816103 2622.78156,214.95999 2628.73866,209.945577 C2634.68109,204.945825 2639.37634,198.890408 2642.82441,191.793986 C2646.27248,184.712227 2647.98919,176.882704 2647.98919,168.334742 C2647.98919,154.567097 2644.277,142.632207 2636.88198,132.500746 L2636.88198,132.500746 Z M2308.74267,194.462475 C2300.29122,189.565358 2293.51245,183.14339 2288.39169,175.211233 C2283.27094,167.293738 2279.61744,158.159294 2277.43122,147.837227 C2275.24499,137.515159 2274.14454,126.826541 2274.14454,115.771372 L2274.14454,3.44557654 L2245.95837,3.44557654 L2245.95837,115.771372 C2245.95837,129.964215 2247.57236,143.775845 2250.81502,157.220924 C2254.05768,170.680666 2259.36918,182.571571 2266.79354,192.893638 C2274.18856,203.215706 2283.96055,211.514414 2296.06549,217.775099 C2308.17044,224.021123 2323.09253,227.158797 2340.84644,227.158797 C2357.95476,227.158797 2372.51004,224.182406 2384.51227,218.244284 C2396.51451,212.291501 2406.27182,204.212724 2413.7989,193.99329 C2421.3113,183.773857 2426.7842,171.926938 2430.23227,158.481859 C2433.66568,145.022117 2435.39705,130.785288 2435.39705,115.771372 L2435.39705,3.44557654 L2407.22555,3.44557654 L2407.22555,115.771372 C2407.22555,126.401342 2406.16912,136.884692 2404.0856,147.206759 C2401.98741,157.543489 2398.39261,166.721918 2393.28652,174.742048 C2388.16577,182.776839 2381.32831,189.301441 2372.77415,194.301193 C2364.20532,199.315606 2353.46493,201.808151 2340.52365,201.808151 C2327.78778,201.808151 2317.19412,199.359592 2308.74267,194.462475 L2308.74267,194.462475 Z M2236.87599,225.58996 L2236.87599,200.561879 L2112.89204,200.561879 L2112.89204,3.44557654 L2084.70586,3.44557654 L2084.70586,225.58996 L2236.87599,225.58996 Z M1872.26045,154.72838 C1877.38121,168.39339 1884.58548,180.592197 1893.8586,191.324801 C1903.1464,202.072068 1914.16556,210.781312 1926.90143,217.452535 C1939.62262,224.138419 1953.62034,227.4667 1968.86523,227.4667 C1977.40472,227.4667 1986.17897,226.323062 1995.15863,224.021123 C2004.12363,221.733847 2012.63377,218.390905 2020.67438,214.02162 C2028.715,209.637674 2035.9046,204.271372 2042.27254,197.89339 C2048.65514,191.544732 2053.59983,184.184394 2057.15061,175.8417 L2033.67436,163.012425 C2030.53441,169.903579 2026.5141,175.797714 2021.61343,180.694831 C2016.71277,185.591948 2011.44528,189.667992 2005.81098,192.893638 C2000.17668,196.133946 1994.2636,198.479871 1988.11576,199.931412 C1981.95324,201.397614 1975.95212,202.130716 1970.11241,202.130716 C1959.04922,202.130716 1948.82238,199.726143 1939.43188,194.93166 C1930.04138,190.137177 1921.89805,183.671223 1915.0019,175.533797 C1908.12043,167.396372 1902.73556,158.05666 1898.87665,147.529324 C1895.00307,137.001988 1893.08095,125.888171 1893.08095,114.202535 C1893.08095,103.777833 1894.69495,93.3971173 1897.9376,83.0750497 C1901.16559,72.7529821 1906.02224,63.4719185 1912.50755,55.2318588 C1918.96352,46.9917992 1926.94545,40.3205765 1936.45333,35.2035288 C1945.94654,30.1011431 1956.84832,27.5352883 1969.17336,27.5352883 C1974.80766,27.5352883 1980.54467,28.1657555 1986.39906,29.4120278 C1992.23877,30.6729622 1997.93176,32.7549702 2003.44868,35.6727137 C2008.98028,38.5904573 2014.10103,42.4465706 2018.79628,47.2557157 C2023.49153,52.0501988 2027.51184,57.9883201 2030.85721,65.0847416 L2053.08628,50.6866302 C2046.19014,36.3031809 2035.65517,24.6175447 2021.46671,15.6443837 C2007.26357,6.68588469 1990.25796,2.19930417 1970.42053,2.19930417 C1953.72305,2.19930417 1938.80095,5.4249503 1925.65425,11.8909046 C1912.50755,18.3568588 1901.38568,26.860835 1892.3033,37.388171 C1883.22093,47.930169 1876.32478,59.8210736 1871.6442,73.0608847 C1866.93428,86.3153579 1864.58665,99.6138171 1864.58665,112.956262 C1864.58665,127.134443 1867.13969,141.06337 1872.26045,154.72838 L1872.26045,154.72838 Z M1755.65684,223.713221 L1798.23689,223.713221 L1798.23689,107.633946 L1712.76866,107.633946 L1712.76866,144.860835 L1755.65684,144.860835 L1755.65684,152.382455 C1748.34986,161.560885 1740.51466,168.39339 1732.18059,172.865308 C1723.83185,177.351889 1715.0576,179.595179 1705.87252,179.595179 C1697.93461,179.595179 1690.6423,177.923708 1683.95156,174.595427 C1677.27551,171.252485 1671.5385,166.604622 1666.74054,160.666501 C1661.92791,154.72838 1658.17171,147.690606 1655.45726,139.553181 C1652.74282,131.415755 1651.39294,122.545229 1651.39294,112.956262 C1651.39294,103.572565 1652.64011,94.804672 1655.14914,86.6672465 C1657.65816,78.5298211 1661.25296,71.3894135 1665.94821,65.2313618 C1670.65814,59.0879722 1676.17506,54.2934891 1682.54299,50.8479125 C1688.91092,47.402336 1696.05651,45.6868787 1703.99442,45.6868787 C1714.01584,45.6868787 1723.34765,48.44334 1732.01919,53.9709245 C1740.67606,59.4985089 1747.3081,67.2693837 1751.90064,77.2835487 L1790.41637,48.5019881 C1783.10938,33.4880716 1772.0462,21.6411531 1757.22682,12.9905567 C1742.39276,4.33996024 1725.18173,0 1705.56439,0 C1690.52492,0 1676.54187,2.93240557 1663.60059,8.76789264 C1650.6593,14.6033797 1639.3907,22.5355368 1629.79479,32.5497018 C1620.1842,42.5492048 1612.67179,54.3374751 1607.24291,67.8998509 C1601.81403,81.4622266 1599.09959,95.860338 1599.09959,111.079523 C1599.09959,126.093439 1601.81403,140.535537 1607.24291,154.405815 C1612.67179,168.290755 1620.0228,180.430915 1629.32526,190.855616 C1638.61305,201.29498 1649.45615,209.637674 1661.88389,215.89836 C1674.29696,222.144384 1687.50235,225.282058 1701.48539,225.282058 C1711.93232,225.282058 1721.58693,223.405318 1730.44922,219.651839 C1739.32617,215.89836 1747.71893,210.048211 1755.65684,202.130716 L1755.65684,223.713221 Z M1527.71711,223.713221 L1569.04998,223.713221 L1569.04998,1.56883698 L1517.69568,1.56883698 L1517.69568,132.046223 L1414.0627,1.56883698 L1373.977,1.56883698 L1373.977,223.713221 L1425.3313,223.713221 L1425.3313,96.6814115 L1527.71711,223.713221 Z M1280.04265,223.713221 L1331.39695,223.713221 L1331.39695,1.56883698 L1280.04265,1.56883698 L1280.04265,223.713221 Z M1196.14439,223.713221 L1237.47727,223.713221 L1237.47727,1.56883698 L1186.12297,1.56883698 L1186.12297,132.046223 L1082.47531,1.56883698 L1042.40429,1.56883698 L1042.40429,223.713221 L1093.75859,223.713221 L1093.75859,96.6814115 L1196.14439,223.713221 Z M882.252228,174.595427 C876.309801,171.047217 871.453152,166.252734 867.696951,160.197316 C863.940751,154.156561 861.226309,147.265408 859.553626,139.553181 C857.880943,131.840954 857.044602,123.703529 857.044602,115.140905 L857.044602,1.56883698 L805.6903,1.56883698 L805.6903,115.140905 C805.6903,129.744284 807.524383,143.717197 811.177874,157.074304 C814.831366,170.41675 820.568375,182.161034 828.403574,192.263171 C836.224101,202.394632 846.406925,210.47341 858.922702,216.514165 C871.453152,222.569583 886.580662,225.58996 904.319905,225.58996 C921.442896,225.58996 936.203589,222.730865 948.63133,216.98335 C961.044399,211.250497 971.271241,203.376988 979.311857,193.362823 C987.352474,183.348658 993.2949,171.677684 997.168482,158.320577 C1001.02739,144.978131 1002.94951,130.58002 1002.94951,115.140905 L1002.94951,1.56883698 L951.60988,1.56883698 L951.60988,115.140905 C951.60988,123.27833 950.817556,131.254473 949.262255,139.083996 C947.69228,146.898857 945.036529,153.833996 941.265656,159.889414 C937.509456,165.944831 932.608788,170.7833 926.563653,174.434145 C920.503846,178.08499 913.094154,179.917744 904.319905,179.917744 C895.560328,179.917744 888.209327,178.143638 882.252228,174.595427 L882.252228,174.595427 Z M783.784023,1.56883698 L596.854365,1.56883698 L596.854365,46.6252485 L664.803442,46.6252485 L664.803442,223.713221 L716.143071,223.713221 L716.143071,46.6252485 L783.784023,46.6252485 L783.784023,1.56883698 Z M2348.82837,1176.99428 L1508.8334,359.219682 L596.913056,359.219682 L596.913056,1112.65731 L224.829132,1112.65731 L492.106263,1382.292 L596.913056,1382.292 L596.913056,1615.71148 L898.069352,1615.71148 L898.069352,1382.292 L1406.79974,1382.292 L1406.79974,1112.65731 L898.069352,1112.65731 L898.069352,614.163022 L1319.83489,614.163022 L1592.70231,880.014911 L1592.70231,1615.71148 L1893.8586,1615.71148 L1893.8586,1172.66899 L2348.82837,1615.84344 L2348.82837,1615.91675 L2348.90173,1615.91675 L2647.98919,1615.91675 L2647.98919,359.42495 L2348.82837,359.42495 L2348.82837,1176.99428 Z M3072.7186,1362.70353 L3072.7186,1129.70924 L3493.98528,1129.70924 L3493.98528,869.590209 L3072.7186,869.590209 L3072.7186,614.163022 L3493.98528,614.163022 L3716.92164,359.219682 L2772.48669,359.219682 L2772.48669,1615.71148 L3716.92164,1615.71148 L3493.98528,1362.70353 L3072.7186,1362.70353 Z M1893.8586,359.014414 L1893.8586,638.707256 L1606.53862,359.014414 L1893.8586,359.014414 Z" id="Fill-1" fill="#4A4A4A" mask="url(#mask-2)"></path>
        </g>
    </g>
</svg>